<?xml version="1.0" encoding="UTF-8" standalone="no"?>
<svg xmlns="http://www.w3.org/2000/svg" viewBox="0 0 816.25 900.00" preserveAspectRatio="xMidYMid meet">
  <title>Mapa: Estados Unidos, México e Belize</title>
  <desc>Mapa estilizado mostrando os tres paises da biografia linguistica, com marcadores em Tucson, Cidade do Mexico e Punta Gorda.</desc>
  <g fill="none" stroke="#e8b56a" stroke-width="2.4" stroke-linejoin="round" stroke-linecap="round">
    <path id="us" d="M45.79 25.00L106.01 25.00L168.95 25.00L189.79 25.00L254.41 25.00L316.96 25.00L380.56 25.00L444.20 25.00L516.25 25.00L588.78 24.98L632.66 25.00L632.73 15.39L639.90 15.27L643.67 29.00L650.26 33.23L665.06 34.77L686.71 38.75L707.27 46.50L724.45 43.25L750.52 49.75L757.46 49.50L776.43 42.43L796.32 51.50L817.05 61.17L834.22 69.49L850.68 77.50L852.73 84.07L857.72 86.53L856.42 89.01L862.11 89.78L866.24 87.19L867.30 93.11L871.57 97.08L877.39 97.08L880.50 100.13L877.88 104.58L899.97 116.31L904.49 139.00L908.73 160.72L902.54 175.50L892.57 189.25L887.91 198.00L887.44 200.61L889.82 204.18L897.02 208.12L902.34 208.12L926.96 194.77L948.81 190.85L976.54 178.41L976.95 175.87L975.04 168.25L971.62 163.34L981.19 159.37L1002.01 159.27L1021.47 159.28L1028.26 149.54L1030.91 147.59L1053.31 129.59L1062.88 124.99L1095.09 124.82L1134.16 124.79L1136.28 118.62L1143.07 117.37L1152.07 113.50L1159.60 102.13L1166.07 82.67L1182.24 63.81L1189.28 70.37L1203.50 66.13L1212.91 73.34L1212.89 107.43L1226.76 121.56L1230.42 129.76L1207.78 141.87L1186.00 150.50L1163.60 157.90L1152.38 172.74L1148.79 178.37L1148.58 191.62L1155.57 204.88L1164.37 205.50L1162.14 196.37L1168.50 201.93L1166.81 209.07L1152.50 213.12L1142.31 212.64L1126.63 217.00L1117.41 218.25L1105.08 219.48L1087.41 226.72L1118.55 222.01L1124.83 226.75L1095.15 234.25L1081.64 234.30L1082.27 231.23L1075.82 238.16L1082.06 239.31L1077.48 257.27L1062.05 276.51L1060.48 270.09L1055.82 268.79L1048.86 262.54L1053.28 276.00L1058.54 280.45L1058.86 289.90L1052.06 299.61L1040.13 319.58L1038.20 318.59L1044.75 301.57L1033.92 292.02L1031.44 271.25L1027.35 282.06L1031.88 297.92L1017.87 294.00L1032.46 302.05L1033.37 325.84L1039.46 327.57L1041.66 336.22L1044.64 361.23L1031.16 379.79L1009.23 387.20L995.29 401.86L984.70 403.47L973.97 412.65L970.94 421.04L947.67 437.27L935.72 449.17L925.72 463.99L922.46 481.75L926.20 499.11L933.28 520.50L942.70 538.20L942.82 549.00L952.86 578.00L952.19 594.86L951.26 604.58L945.98 619.85L939.64 623.00L929.20 619.97L925.86 609.00L917.80 603.25L906.56 581.75L896.70 562.62L893.52 552.84L897.87 536.25L891.93 522.50L875.41 501.59L867.13 497.75L845.74 509.10L841.95 507.85L831.66 496.18L818.37 490.00L794.40 493.14L775.59 490.38L759.42 492.10L750.65 496.00L754.47 502.65L754.13 512.78L758.63 517.72L754.59 521.01L746.72 517.32L738.76 522.06L723.38 521.29L707.55 508.07L689.06 511.19L673.64 505.41L660.45 507.16L642.61 513.00L623.31 531.53L602.24 542.31L590.67 554.25L585.79 565.50L585.58 582.75L586.64 594.75L590.67 603.25L582.40 604.00L567.34 598.50L550.81 590.75L544.87 579.00L540.21 561.50L527.70 547.25L520.37 532.60L509.73 515.48L494.79 505.52L477.45 506.00L464.09 525.75L446.50 518.25L435.54 510.70L430.26 496.96L423.23 483.90L410.63 472.90L399.79 465.00L392.06 456.14L355.33 456.13L355.29 466.44L338.48 466.45L296.32 466.63L247.95 449.02L215.93 436.87L217.92 431.98L190.99 434.69L166.90 436.62L163.34 423.84L149.60 409.47L139.70 406.48L137.39 399.31L125.49 398.05L117.90 391.29L98.21 388.82L92.80 384.79L90.23 371.08L69.66 345.96L52.00 311.21L52.75 305.42L43.39 297.16L26.98 276.21L24.06 255.83L12.76 242.17L17.41 221.45L16.67 200.01L9.90 180.85L18.19 157.29L20.77 134.60L23.34 111.91L19.51 78.38L12.81 57.00L6.63 45.39L9.20 40.51L39.86 49.00L51.15 72.60L56.40 66.00L53.00 45.50L45.79 25.00Z"/>
    <path id="mx" d="M778.08 787.50L774.05 787.83L766.46 802.92L762.61 799.96L760.04 801.11L760.21 804.79L740.60 804.52L720.81 804.56L720.79 818.63L711.22 818.70L719.11 827.04L726.95 832.81L729.30 838.23L732.74 839.75L732.19 848.26L704.98 848.34L694.78 868.71L697.79 873.39L695.33 879.25L694.81 886.53L670.82 859.61L659.88 851.50L642.57 844.98L630.73 846.79L613.70 856.20L603.02 858.66L588.05 852.07L572.16 847.32L552.34 835.85L536.45 832.35L512.44 820.72L494.71 808.77L489.35 802.10L477.49 800.61L455.80 792.69L446.97 781.29L424.19 767.10L413.57 751.33L408.52 739.15L415.59 736.71L413.41 729.58L418.28 723.09L418.39 714.45L411.24 703.22L409.32 693.27L402.21 680.66L383.53 655.81L362.21 636.28L351.90 620.69L333.70 610.48L329.80 604.38L333.04 588.93L322.23 583.10L309.71 570.95L304.43 553.50L293.02 551.47L280.71 538.30L270.78 526.14L269.85 518.33L258.45 499.47L250.94 480.33L251.26 470.73L235.93 460.81L228.85 461.90L216.75 455.01L213.35 465.16L216.86 477.16L218.93 495.93L226.20 506.24L241.93 523.46L245.42 529.35L248.65 531.13L251.45 539.72L255.21 539.37L259.47 555.49L265.91 561.85L270.42 570.71L283.75 583.43L290.78 606.69L297.08 617.63L302.97 629.35L304.13 642.54L314.35 643.36L322.86 654.72L330.55 665.88L330.03 670.36L321.11 679.54L317.35 679.42L311.76 664.23L297.89 649.98L282.60 637.89L271.76 631.54L272.46 613.25L269.24 599.70L259.14 591.95L244.56 580.80L241.76 584.01L236.42 577.50L223.34 571.45L210.84 556.93L212.39 555.04L221.12 556.46L228.99 547.12L229.78 535.85L213.46 518.01L201.02 511.09L193.20 495.48L185.33 479.09L175.51 459.11L166.90 436.62L190.99 434.69L217.92 431.98L215.93 436.87L247.95 449.02L296.32 466.63L338.48 466.45L355.29 466.44L355.33 456.13L392.06 456.14L399.79 465.00L410.63 472.90L423.23 483.90L430.26 496.96L435.54 510.70L446.50 518.25L464.09 525.75L477.45 506.00L494.79 505.52L509.73 515.48L520.37 532.60L527.70 547.25L540.21 561.50L544.87 579.00L550.81 590.75L567.34 598.50L582.40 604.00L590.67 603.25L582.44 625.20L578.73 643.19L577.18 676.69L575.14 688.89L578.81 702.53L585.39 714.72L589.62 734.11L603.69 752.73L608.64 766.99L616.94 779.30L639.45 785.93L648.21 796.39L666.81 789.40L682.97 786.88L698.85 782.39L712.19 778.10L725.68 767.90L730.73 753.31L732.47 732.31L736.14 725.00L750.49 718.46L772.91 712.66L791.69 713.53L804.55 711.41L809.63 716.71L808.91 728.75L797.52 743.61L792.48 758.84L796.39 763.19L793.21 774.00L787.90 793.50L782.52 787.08L778.08 787.50Z"/>
    <path id="bz" d="M760.21 804.79L760.04 801.11L762.61 799.96L766.46 802.92L774.05 787.83L778.08 787.50L778.16 791.17L782.18 791.28L781.83 798.08L778.39 808.90L780.25 812.76L778.03 821.71L779.37 824.10L776.91 836.73L772.75 843.36L768.92 844.16L764.71 852.82L758.39 852.83L760.05 824.61L760.21 804.79Z"/>
  </g>
  <g fill="#e8b56a" stroke="#0a0e1a" stroke-width="1.5">
    <circle cx="298.39" cy="444.45" r="6.5"/>
    <circle cx="548.41" cy="764.20" r="6.5"/>
    <circle cx="767.36" cy="847.52" r="6.5"/>
  </g>
  <g fill="#f5f1e8" font-family="Space Grotesk, sans-serif" font-size="20" font-weight="600" letter-spacing="2">
    <text x="310.39" y="434.45">TUCSON</text>
    <text x="403.41" y="769.20">CIDADE DO MÉXICO</text>
    <text x="779.36" y="852.52">PUNTA GORDA</text>
  </g>
</svg>